<?xml version="1.0" encoding="utf-8"?>
<!-- Generator: Adobe Illustrator 23.0.6, SVG Export Plug-In . SVG Version: 6.00 Build 0)  -->
<svg version="1.1" id="Layer_1" xmlns="http://www.w3.org/2000/svg" xmlns:xlink="http://www.w3.org/1999/xlink" x="0px" y="0px"
	 viewBox="0 0 80 80" style="enable-background:new 0 0 80 80;" xml:space="preserve">
<style type="text/css">
	.st0{fill:#666666;}
	.st1{fill:#FBB03B;}
	.st2{fill:#C7B299;}
	.st3{fill:#534741;}
	.st4{fill:#B3B3B3;stroke:#534741;stroke-miterlimit:10;}
	.st5{fill:#4D4D4D;stroke:#E6E6E6;stroke-miterlimit:10;}
	.st6{fill:#4D4D4D;stroke:#534741;stroke-miterlimit:10;}
	.st7{fill:#4D4D4D;stroke:#666666;stroke-width:0.5;stroke-miterlimit:10;}
</style>
<g>
	<path class="st0" d="M17.5,59.5c-4.96,0-9-4.04-9-9v-17c0-4.96,4.04-9,9-9h49c4.96,0,9,4.04,9,9v17c0,4.96-4.04,9-9,9H17.5z"/>
	<path class="st1" d="M66.5,25c4.69,0,8.5,3.81,8.5,8.5v17c0,4.69-3.81,8.5-8.5,8.5h-49C12.81,59,9,55.19,9,50.5v-17
		c0-4.69,3.81-8.5,8.5-8.5H66.5 M66.5,24h-49C12.25,24,8,28.25,8,33.5v17c0,5.25,4.25,9.5,9.5,9.5h49c5.25,0,9.5-4.25,9.5-9.5v-17
		C76,28.25,71.75,24,66.5,24L66.5,24z"/>
</g>
<g>
	<path class="st2" d="M66.15,26c4.33,0,7.85,3.52,7.85,7.85v16.3c0,4.33-3.52,7.85-7.85,7.85h-48.3C13.52,58,10,54.48,10,50.15
		v-16.3c0-4.33,3.52-7.85,7.85-7.85H66.15 M66.15,25h-48.3C12.96,25,9,28.96,9,33.85v16.3C9,55.04,12.96,59,17.85,59h48.3
		c4.89,0,8.85-3.96,8.85-8.85v-16.3C75,28.96,71.04,25,66.15,25L66.15,25z"/>
</g>
<g>
	<rect x="13.5" y="26.5" class="st1" width="16" height="31"/>
	<path class="st2" d="M29,27v30H14V27H29 M30,26H13v32h17V26L30,26z"/>
</g>
<g>
	<path class="st1" d="M15.22,55.5c-4.26,0-7.72-3.46-7.72-7.72V35.22c0-4.26,3.46-7.72,7.72-7.72h0.55c4.26,0,7.72,3.46,7.72,7.72
		v12.55c0,4.26-3.46,7.72-7.72,7.72H15.22z"/>
	<path class="st1" d="M15.78,28c3.98,0,7.22,3.24,7.22,7.22v12.55c0,3.98-3.24,7.22-7.22,7.22h-0.55C11.24,55,8,51.76,8,47.78V35.22
		C8,31.24,11.24,28,15.22,28H15.78 M15.78,27h-0.55C10.68,27,7,30.68,7,35.22v12.55C7,52.32,10.68,56,15.22,56h0.55
		c4.54,0,8.22-3.68,8.22-8.22V35.22C24,30.68,20.32,27,15.78,27L15.78,27z"/>
</g>
<g>
	<ellipse class="st1" cx="9" cy="42" rx="2.5" ry="4.5"/>
	<path class="st3" d="M9,38c0.94,0,2,1.71,2,4s-1.06,4-2,4s-2-1.71-2-4S8.06,38,9,38 M9,37c-1.66,0-3,2.24-3,5s1.34,5,3,5
		s3-2.24,3-5S10.66,37,9,37L9,37z"/>
</g>
<g>
	<ellipse class="st1" cx="7" cy="42" rx="1.5" ry="4.5"/>
	<path class="st3" d="M7,38.02c0.33,0.26,1,1.63,1,3.98s-0.67,3.72-1,3.98C6.67,45.72,6,44.35,6,42S6.67,38.28,7,38.02 M7,37
		c-1.1,0-2,2.24-2,5s0.9,5,2,5s2-2.24,2-5S8.1,37,7,37L7,37z"/>
</g>
<path class="st4" d="M32,33.5c0.01,0.4,0.02,1.03,0,1.9c0,0.05,0,0.07,0,0.1c0.07,0.98,3.04,1.5,6.02,2c3.95,0.66,5.93,0.99,6.02,1
	c5.97,0.54,30.83,0.21,30.96-3c0.1-2.58-15.72-7.55-31.82-5C38.62,31.22,34.82,32.42,32,33.5z"/>
<path class="st4" d="M32.17,46.14c0.01,0.4,0.02,1.03,0,1.9c0,0.05,0,0.07,0,0.1c0.07,0.98,3.03,1.5,6,2c3.94,0.66,5.91,0.99,6,1
	c5.95,0.54,30.71,0.21,30.84-3c0.1-2.58-15.65-7.55-31.69-5C38.77,43.86,34.98,45.06,32.17,46.14z"/>
<circle class="st5" cx="38.5" cy="34.5" r="2"/>
<circle class="st5" cx="40.5" cy="46.5" r="2"/>
<path class="st6" d="M76.43,49.48c1.88-0.07,3.98-0.49,4-1c0.02-0.7-3.94-0.96-4-2c-0.06-0.93,3.07-1.4,3-2
	c-0.09-0.81-6.06-2.03-9,1c-0.41,0.42-1.17,1.21-1,2C69.79,49.15,73.98,49.57,76.43,49.48z"/>
<path class="st6" d="M77.43,37.48c1.88-0.07,3.98-0.49,4-1c0.02-0.7-3.94-0.96-4-2c-0.06-0.93,3.07-1.4,3-2
	c-0.09-0.81-6.06-2.03-9,1c-0.41,0.42-1.17,1.21-1,2C70.79,37.15,74.98,37.57,77.43,37.48z"/>
<path class="st7" d="M45.01,44.04c0.17-0.24,2.33,0.59,2.79,2.39c0.58,2.24-1.83,4.61-1.93,4.54c-0.08-0.05,1.23-1.46,1.07-3.35
	C46.77,45.48,44.84,44.28,45.01,44.04z"/>
<path class="st7" d="M44.15,31.26c0.17-0.24,2.33,0.59,2.79,2.39c0.58,2.24-1.83,4.61-1.93,4.54c-0.08-0.05,1.23-1.46,1.07-3.35
	C45.91,32.69,43.97,31.49,44.15,31.26z"/>
</svg>
