<?xml version="1.0" encoding="utf-8"?>
<!-- Generator: Adobe Illustrator 23.0.6, SVG Export Plug-In . SVG Version: 6.00 Build 0)  -->
<svg version="1.1" id="Layer_1" xmlns="http://www.w3.org/2000/svg" xmlns:xlink="http://www.w3.org/1999/xlink" x="0px" y="0px"
	 viewBox="0 0 80 80" style="enable-background:new 0 0 80 80;" xml:space="preserve">
<style type="text/css">
	.st0{fill:#FF0000;stroke:#000000;stroke-miterlimit:10;}
	.st1{fill:#754C24;}
	.st2{fill:#009245;stroke:#000000;stroke-miterlimit:10;}
</style>
<path class="st0" d="M59.75,43.16c0.7,5.3-2.07,10.38-4.74,15.02c-1.68,2.91-3.55,6-6.61,7.39c-1.64,0.75-3.49,0.92-5.29,0.97
	c-3.16,0.08-6.33-0.21-9.42-0.85c-1.49-0.31-2.99-0.72-4.24-1.57c-1.29-0.87-2.24-2.15-3.14-3.42c-2.36-3.34-4.57-6.94-5.24-10.98
	c-0.8-4.9,0.81-9.97,3.49-14.15c0.93-1.45,2.01-2.85,3.44-3.81c1.05-0.71,2.24-1.16,3.42-1.6c2.56-0.96,5.22-1.94,7.94-1.68
	c1.82,0.18,2.84,0.76,4.61,0.32c0.71-0.18,1.42-0.45,2.15-0.4c0.7,0.05,1.34,0.38,1.95,0.7c1.2,0.63,2.39,1.27,3.59,1.9
	c0.87,0.46,1.75,0.93,2.45,1.61c0.63,0.61,1.09,1.37,1.54,2.12C57.31,37.49,59.33,39.96,59.75,43.16z"/>
<path class="st1" d="M42.37,26.75c0.53-1.11,1.35-2.16,1.37-3.39c-0.67-0.35-1.43-0.56-2.19-0.59c-0.04,2.98-0.77,5.75-1.2,8.64
	C42.26,31.92,41.74,28.07,42.37,26.75z"/>
<path class="st2" d="M46.33,24.63c3.98-0.05,8.15,0.18,11.82,1.53c1.84,0.68,1.56,3.41-0.38,3.69c-4.49,0.65-9.29-0.27-13.79-1.36
	c-0.06-0.01-0.12-0.03-0.18-0.04c-2.18-0.53-1.84-3.72,0.41-3.78C44.92,24.65,45.62,24.64,46.33,24.63z"/>
</svg>
