<?xml version="1.0" encoding="utf-8"?>
<!-- Generator: Adobe Illustrator 23.0.6, SVG Export Plug-In . SVG Version: 6.00 Build 0)  -->
<svg version="1.1" id="Layer_1" xmlns="http://www.w3.org/2000/svg" xmlns:xlink="http://www.w3.org/1999/xlink" x="0px" y="0px"
	 viewBox="0 0 80 80" style="enable-background:new 0 0 80 80;" xml:space="preserve">
<style type="text/css">
	.st0{fill:#8A2B19;stroke:#000000;stroke-miterlimit:10;}
	.st1{fill:#D16914;stroke:#000000;stroke-miterlimit:10;}
	.st2{fill:#EDB266;}
	.st3{fill:none;stroke:#8C6239;stroke-miterlimit:10;}
</style>
<path class="st0" d="M41.39,9.89c2.15,2.73,5.54,4.17,8.87,5.15c3.34,0.98,6.81,1.61,9.89,3.23c-3.67,4.35-8.96,7.31-12.57,11.71
	c-2.75,3.34-4.45,7.4-6.74,11.08c-2.03,3.26-4.51,6.22-6.45,9.54c-1.06,1.81-1.95,3.7-2.96,5.53c-2.3,4.15-5.24,7.94-8.68,11.2
	c-1.78-0.93-3.45-1.67-4.82-3.15c-0.74-0.8-1.41-1.67-2.16-2.47c-1.28-1.37-2.78-2.52-4.26-3.66c-0.46-6.61,2.79-13.12,6.55-18.58
	c2.46-3.57,5.23-6.92,8.27-10c2.58-2.61,5.38-5.07,7.41-8.13C36.27,17.48,37.78,12.77,41.39,9.89z"/>
<path class="st1" d="M53.89,6.03c2.15,2.73,5.54,4.17,8.87,5.15c3.34,0.98,6.81,1.61,9.89,3.23c-3.67,4.35-8.96,7.31-12.57,11.71
	c-2.75,3.34-4.45,7.4-6.74,11.08c-2.03,3.26-4.51,6.22-6.45,9.54c-1.06,1.81-1.95,3.7-2.96,5.53c-2.3,4.15-5.24,7.94-8.68,11.2
	c-1.78-0.93-3.45-1.67-4.82-3.15c-0.74-0.8-1.41-1.67-2.16-2.47c-1.28-1.37-2.78-2.52-4.26-3.66c-0.46-6.61,2.79-13.12,6.55-18.58
	c2.46-3.57,5.23-6.92,8.27-10c2.58-2.61,5.38-5.07,7.41-8.13C48.77,13.62,50.28,8.92,53.89,6.03z"/>
<path class="st2" d="M57.89,18.03c2.15,2.73,5.54,4.17,8.87,5.15c3.34,0.98,6.81,1.61,9.89,3.23c-3.67,4.35-8.96,7.31-12.57,11.71
	c-2.75,3.34-4.45,7.4-6.74,11.08c-2.03,3.26-4.51,6.22-6.45,9.54c-1.06,1.81-1.95,3.7-2.96,5.53c-2.3,4.15-5.24,7.94-8.68,11.2
	c-1.78-0.93-3.45-1.67-4.82-3.15c-0.74-0.8-1.41-1.67-2.16-2.47c-1.28-1.37-2.78-2.52-4.26-3.66c-0.46-6.61,2.79-13.12,6.55-18.58
	c2.46-3.57,5.23-6.92,8.27-10c2.58-2.61,5.38-5.07,7.41-8.13C52.77,25.62,54.28,20.92,57.89,18.03z"/>
<path class="st3" d="M24.48,63.21c0.71-0.5,1.04-1.38,1.32-2.2c3.49-10.03,7.9-19.74,13.14-28.98c1.28-2.25,2.61-4.48,4.05-6.63
	c2.61-3.89,5.67-7.66,6.82-12.2"/>
<path class="st3" d="M37.05,72.46c7.26-17.37,15.46-34.35,24.57-50.84"/>
<path class="st3" d="M16.49,61.06c4.16-7.43,7.85-15.13,11.04-23.02c1.64-4.06,3.17-8.22,5.68-11.81c3.42-4.9,8.45-8.41,13.49-11.61
	"/>
<path class="st3" d="M41.6,75.15c7.26-17.37,15.46-34.35,24.57-50.84"/>
<path class="st3" d="M31.6,70.15c7.26-17.37,15.46-34.35,24.57-50.84"/>
</svg>
