<?xml version="1.0" encoding="utf-8"?>
<!-- Generator: Adobe Illustrator 23.0.6, SVG Export Plug-In . SVG Version: 6.00 Build 0)  -->
<svg version="1.1" id="Layer_1" xmlns="http://www.w3.org/2000/svg" xmlns:xlink="http://www.w3.org/1999/xlink" x="0px" y="0px"
	 viewBox="0 0 80 80" style="enable-background:new 0 0 80 80;" xml:space="preserve">
<style type="text/css">
	.st0{fill:#C6B19C;}
	.st1{fill:#3A506B;}
</style>
<g>
	<ellipse class="st0" cx="40.5" cy="37.5" rx="34" ry="21"/>
	<path class="st0" d="M40.5,17C59,17,74,26.2,74,37.5S59,58,40.5,58S7,48.8,7,37.5S22,17,40.5,17 M40.5,16C21.5,16,6,25.6,6,37.5
		S21.5,59,40.5,59S75,49.4,75,37.5S59.5,16,40.5,16L40.5,16z"/>
</g>
<g>
	<ellipse class="st1" cx="39" cy="36" rx="8.5" ry="2.5"/>
	<path class="st1" d="M39,34c5.3,0,8,1.5,8,2s-2.8,2-8,2s-8-1.5-8-2S33.8,34,39,34 M39,33c-5,0-9,1.3-9,3s4,3,9,3s9-1.3,9-3
		S44,33,39,33L39,33z"/>
</g>
</svg>
