<?xml version="1.0" encoding="utf-8"?>
<!-- Generator: Adobe Illustrator 23.0.6, SVG Export Plug-In . SVG Version: 6.00 Build 0)  -->
<svg version="1.1" id="Layer_1" xmlns="http://www.w3.org/2000/svg" xmlns:xlink="http://www.w3.org/1999/xlink" x="0px" y="0px"
	 viewBox="0 0 80 80" style="enable-background:new 0 0 80 80;" xml:space="preserve">
<style type="text/css">
	.st0{fill:#E8C020;stroke:#000000;stroke-miterlimit:10;}
	.st1{fill:#603813;stroke:#000000;stroke-miterlimit:10;}
	.st2{fill:#754C24;stroke:#000000;stroke-miterlimit:10;}
	.st3{fill:none;stroke:#000000;stroke-miterlimit:10;}
</style>
<path class="st0" d="M74.93,10.7c-0.95,1.19-2.2,2.11-3.19,3.26c-2.42,2.83-1.17,6.81-1.24,10.53s-1.56,7.52-2.55,11.11
	c-1.1,3.96-3.71,7.31-6.47,10.35C55.61,52.43,48.43,58.26,39.87,60c-3.45,0.7-7,0.7-10.52,0.71c-1.41,0-2.84,0-4.19-0.4
	c-1.9-0.56-3.48-1.85-5.2-2.83c-2.27-1.28-4.82-2.04-6.99-3.48c-3.13-2.09-5.18-5.42-7.12-8.64c-1.36-2.26-2.74-4.56-3.39-7.11
	c-0.65-2.56-0.47-5.45,1.1-7.57c0.32-0.43,0.71-0.84,1.21-1.05c0.54-0.22,1.14-0.19,1.72-0.12c8.1,0.97,14.31,8.18,22.36,9.48
	c4.62,0.75,9.35-0.57,13.59-2.53c6.99-3.24,13.12-8.3,17.62-14.54c2.87-3.98,5.07-8.39,7.68-12.54c0.24-0.38,0.49-0.76,0.86-1
	c0.49-0.32,1.11-0.35,1.69-0.4c0.87-0.08,1.73-0.26,2.57-0.53c0.67-0.22,1.69-0.95,2.41-0.75C77.06,7.2,75.58,9.87,74.93,10.7z"/>
<path class="st1" d="M2.58,35.47c0,0.42,0.05,0.9,0.39,1.15c0.16,0.12,0.36,0.17,0.56,0.21c0.38,0.09,0.77,0.18,1.16,0.14
	c2.3-0.23,3.49-4.69,1.55-6.02C3.48,29.07,2.57,33.66,2.58,35.47z"/>
<path class="st2" d="M74.42,7.7c-1.56,0.35-3.12,0.7-4.68,1.05c-0.44,0.1-0.89,0.2-1.29,0.42c-0.96,0.54-1.41,1.66-1.8,2.69
	c-0.17,0.46-0.34,0.92-0.51,1.38c-0.05,0.14-0.1,0.29-0.06,0.43c0.04,0.11,0.13,0.19,0.23,0.27c1.1,0.91,2.21,1.82,3.31,2.73
	c0.14,0.11,0.28,0.23,0.45,0.27c0.36,0.09,0.73-0.19,0.92-0.51c0.19-0.32,0.28-0.7,0.47-1.02c0.43-0.73,1.28-1.05,2-1.5
	c1.84-1.15,2.9-3.44,2.59-5.59C75.91,7.3,75.2,7.53,74.42,7.7z"/>
<path class="st3" d="M7.65,35.29c4.71,1.87,9.42,3.75,14.13,5.62c3.36,1.34,6.76,2.69,10.34,3.26c7.12,1.14,14.71-1.05,20.13-5.81
	c1.81-1.58,3.37-3.42,5.16-5.03c1.33-1.19,2.78-2.26,3.98-3.58c1.28-1.41,2.14-3.12,3.18-4.71c1.77-2.72,0.98-5.87,2.92-9.54"/>
<path class="st3" d="M4.5,36.5c4.71,1.87,14.46,10.71,19.17,12.58c3.36,1.34,6.76,2.69,10.34,3.26c7.12,1.14,14.71-1.05,20.13-5.81
	c1.81-1.58,3.37-3.42,5.16-5.03c1.33-1.19,2.78-2.26,3.98-3.58c1.28-1.41,2.23-3.07,3.18-4.71c1.87-3.26,2.16-12.45,4.04-15.71"/>
</svg>
