<?xml version="1.0" encoding="utf-8"?>
<!-- Generator: Adobe Illustrator 23.0.6, SVG Export Plug-In . SVG Version: 6.00 Build 0)  -->
<svg version="1.1" id="Layer_1" xmlns="http://www.w3.org/2000/svg" xmlns:xlink="http://www.w3.org/1999/xlink" x="0px" y="0px"
	 viewBox="0 0 80 80" style="enable-background:new 0 0 80 80;" xml:space="preserve">
<style type="text/css">
	.st0{fill:#12171A;stroke:#662D91;stroke-width:0.25;stroke-miterlimit:10;}
	.st1{fill:#12171A;stroke:#1B1464;stroke-width:0.25;stroke-miterlimit:10;}
	.st2{fill:#009245;}
</style>
<circle class="st0" cx="38" cy="33" r="2.83"/>
<circle class="st0" cx="37.96" cy="38.83" r="2.83"/>
<circle class="st0" cx="35.19" cy="35.52" r="2.83"/>
<circle class="st0" cx="41.19" cy="35.52" r="2.83"/>
<circle class="st0" cx="35.19" cy="32.52" r="2.83"/>
<circle class="st0" cx="41.19" cy="32.52" r="2.83"/>
<circle class="st0" cx="43.19" cy="38.52" r="2.83"/>
<circle class="st0" cx="44.19" cy="33.52" r="2.83"/>
<circle class="st0" cx="32.19" cy="36.52" r="2.83"/>
<circle class="st0" cx="34.19" cy="39.52" r="2.83"/>
<circle class="st0" cx="42.19" cy="39.52" r="2.83"/>
<circle class="st0" cx="44.19" cy="36.52" r="2.83"/>
<circle class="st0" cx="33.19" cy="35.52" r="2.83"/>
<ellipse class="st1" cx="42.08" cy="45.94" rx="2.41" ry="3.22"/>
<circle class="st0" cx="40" cy="35" r="2.83"/>
<circle class="st0" cx="39.96" cy="40.83" r="2.83"/>
<circle class="st0" cx="37.19" cy="37.52" r="2.83"/>
<circle class="st0" cx="43.19" cy="37.52" r="2.83"/>
<circle class="st0" cx="35.19" cy="39.52" r="2.83"/>
<circle class="st0" cx="41.19" cy="39.52" r="2.83"/>
<circle class="st0" cx="34.19" cy="35.52" r="2.83"/>
<ellipse class="st1" cx="33.58" cy="32.26" rx="2.41" ry="3.22"/>
<circle class="st0" cx="34.19" cy="38.52" r="2.83"/>
<circle class="st0" cx="36.19" cy="41.52" r="2.83"/>
<ellipse class="st1" cx="46.34" cy="36.82" rx="2.41" ry="3.22"/>
<ellipse class="st1" cx="39.53" cy="33.4" rx="2.41" ry="3.22"/>
<circle class="st0" cx="33.19" cy="42.52" r="2.83"/>
<ellipse class="st1" cx="42.94" cy="40.24" rx="2.41" ry="3.22"/>
<circle class="st0" cx="40.38" cy="51.04" r="2.83"/>
<ellipse class="st1" cx="28.67" cy="49.01" rx="2.41" ry="3.22"/>
<circle class="st0" cx="45.19" cy="47.52" r="2.83"/>
<circle class="st0" cx="37.19" cy="48.52" r="2.83"/>
<ellipse class="st1" cx="36.98" cy="52.78" rx="2.41" ry="3.22"/>
<circle class="st0" cx="37.19" cy="51.52" r="2.83"/>
<ellipse class="st1" cx="44.64" cy="31.13" rx="2.41" ry="3.22"/>
<circle class="st0" cx="34.19" cy="50.52" r="2.83"/>
<ellipse transform="matrix(0.5 -0.866 0.866 0.5 -14.1969 43.3818)" class="st1" cx="30.47" cy="33.99" rx="3.22" ry="2.41"/>
<ellipse class="st1" cx="26.77" cy="36.82" rx="2.41" ry="3.22"/>
<circle class="st0" cx="36.19" cy="44.52" r="2.83"/>
<circle class="st0" cx="34.19" cy="47.52" r="2.83"/>
<ellipse class="st1" cx="31.02" cy="39.1" rx="2.41" ry="3.22"/>
<circle class="st0" cx="33.19" cy="43.52" r="2.83"/>
<circle class="st0" cx="37.19" cy="35.02" r="2.83"/>
<circle class="st0" cx="39.19" cy="38.02" r="2.83"/>
<circle class="st0" cx="36.19" cy="39.02" r="2.83"/>
<ellipse class="st1" cx="43.19" cy="42.23" rx="2.41" ry="3.22"/>
<ellipse transform="matrix(0.5 -0.866 0.866 0.5 -12.3019 58.5946)" class="st1" cx="44.59" cy="39.95" rx="3.22" ry="2.41"/>
<ellipse class="st1" cx="46.74" cy="32.7" rx="2.41" ry="3.22"/>
<ellipse class="st1" cx="38.49" cy="46.07" rx="2.41" ry="3.22"/>
<ellipse class="st1" cx="28.47" cy="41.95" rx="2.41" ry="3.22"/>
<ellipse class="st1" cx="31.87" cy="44.23" rx="2.41" ry="3.22"/>
<ellipse class="st1" cx="31.87" cy="51.07" rx="2.41" ry="3.22"/>
<ellipse class="st1" cx="40.38" cy="52.21" rx="2.41" ry="3.22"/>
<ellipse class="st1" cx="38.68" cy="29.42" rx="2.41" ry="3.22"/>
<ellipse class="st1" cx="36.13" cy="46.51" rx="2.41" ry="3.22"/>
<ellipse class="st1" cx="36.13" cy="40.81" rx="2.41" ry="3.22"/>
<path class="st2" d="M33.6,30.16l-5.49-3.13l-5.29,0.99L17.52,29l5.49-1.97l3.33-1.38c0,0,4.12-0.2,5.1,0s4.9,0.98,4.9,0.98
	l4.11-5.3l2.75,6.67l2.34-11.77l1.18,9.41l0.39,3.14L33.6,30.16z"/>
<circle class="st0" cx="45.19" cy="42.52" r="2.83"/>
<circle class="st0" cx="48.19" cy="40.52" r="2.83"/>
<circle class="st0" cx="43.19" cy="50.52" r="2.83"/>
</svg>
