<?xml version="1.0" encoding="utf-8"?>
<!-- Generator: Adobe Illustrator 23.0.6, SVG Export Plug-In . SVG Version: 6.00 Build 0)  -->
<svg version="1.1" id="Layer_1" xmlns="http://www.w3.org/2000/svg" xmlns:xlink="http://www.w3.org/1999/xlink" x="0px" y="0px"
	 viewBox="0 0 80 80" style="enable-background:new 0 0 80 80;" xml:space="preserve">
<style type="text/css">
	.st0{fill:#FFFA9F;stroke:#000000;stroke-width:0.25;stroke-miterlimit:10;}
</style>
<polyline class="st0" points="69.63,55.21 38.28,11.32 12.71,26.02 69.63,55.21 70,75 70.11,74.71 12.93,44.71 13.62,45.57 
	13.24,25.78 "/>
<ellipse class="st0" cx="29" cy="45" rx="3" ry="4"/>
<ellipse class="st0" cx="54" cy="56" rx="3" ry="4"/>
<ellipse transform="matrix(0.9734 -0.229 0.229 0.9734 -5.9885 11.8074)" class="st0" cx="47.87" cy="31.7" rx="3" ry="4"/>
<ellipse transform="matrix(0.9734 -0.229 0.229 0.9734 -4.7042 8.8728)" class="st0" cx="35.87" cy="24.7" rx="4" ry="3"/>
<ellipse transform="matrix(0.5 -0.866 0.866 0.5 -8.3129 67.0059)" class="st0" cx="53.87" cy="40.7" rx="3" ry="4"/>
<ellipse transform="matrix(0.9911 -0.1331 0.1331 0.9911 -6.6911 5.9302)" class="st0" cx="41" cy="53" rx="4" ry="3"/>
<ellipse class="st0" cx="23" cy="37" rx="3" ry="4"/>
</svg>
