<?xml version="1.0" encoding="utf-8"?>
<!-- Generator: Adobe Illustrator 23.0.6, SVG Export Plug-In . SVG Version: 6.00 Build 0)  -->
<svg version="1.1" id="Layer_1" xmlns="http://www.w3.org/2000/svg" xmlns:xlink="http://www.w3.org/1999/xlink" x="0px" y="0px"
	 viewBox="0 0 80 80" style="enable-background:new 0 0 80 80;" xml:space="preserve">
<style type="text/css">
	.st0{fill:#FAEBCB;stroke:#000000;stroke-miterlimit:10;}
	.st1{fill:none;stroke:#000000;stroke-miterlimit:10;}
	.st2{fill:#E6E6E6;stroke:#000000;stroke-miterlimit:10;}
	.st3{fill:none;}
	.st4{fill:#E30613;stroke:#000000;stroke-miterlimit:10;}
</style>
<path class="st0" d="M12,6.9c-0.1-0.1-0.1-0.3,0.1-0.3s0.2-0.1,0.4-0.1c0.6,0,1.3,0,1.9-0.1c0.7,0,1.5-0.1,2.1-0.4
	c0.1-0.1,0.2-0.1,0.3-0.2c0.1-0.1,0.1-0.3,0.1-0.4c0-0.3,0.1-0.6,0.1-0.9c0-0.2,0-0.5-0.2-0.6c-0.2-0.1-0.4,0-0.6-0.1
	c0-0.1-0.1-0.1-0.1-0.2c0-0.3-0.1-0.6-0.2-0.9c0-0.1-0.1-0.3-0.1-0.3c-0.1-0.1-0.4-0.1-0.6,0c-0.5,0.2-1,0.3-1.5,0.4
	c0-0.4,0-0.8-0.1-1.3c-0.4-0.1-0.8,0.2-1.1,0.5c-0.2,0.3-0.5,0.5-0.7,0.8c0-0.3,0-0.5,0-0.8c-0.3,0.1-0.5,0.3-0.6,0.6
	C11,2.4,11.1,2,11,1.8c-0.1-0.2-0.3-0.3-0.4-0.3c-0.6,0-1,0.6-1.2,1.1S8.9,3.8,8.3,4c0-0.2,0-0.4,0-0.6c0-0.1,0-0.2-0.1-0.2
	c0,0-0.1,0-0.1,0C7.8,3.4,7.7,3.8,7.5,4S7.2,4.6,6.8,4.7c-0.1,0-0.1,0-0.2,0.1C6.6,4.8,6.6,5,6.6,5.1c0,0.3-0.2,0.5-0.4,0.6
	C5.9,5.8,5.7,5.8,5.5,6C5,6.2,4.8,6.7,4.7,7.2s0,1,0,1.5C4.1,9,3.4,9.2,2.7,9.2c-0.4,0-0.9,0.4-1,0.8c1.4-0.1,2.8,0.2,4,0.8
	c0.1,0.3-0.2,0.6-0.4,0.8s-0.6,0.3-0.8,0.5c-0.5,0.4-0.6,1.2-0.7,1.8c0,0.3,0,0.6,0.1,0.8C4,15,4.2,15.1,4.4,15.2
	C5.1,15.6,6,16,6.8,15.8c0.1,0.5-0.2,1-0.3,1.6c-0.1,0.7,0,1.4,0.1,2.1c0.6,3.3,1.2,6.6,1,10c0,0.6-0.1,1.3-0.4,1.9
	c-0.6,1.2-0.2,2.9-0.2,4.2c0,0.4,0,0.7,0.1,1.1c0.1,0.3,0.2,0.6,0.3,0.9c0.2,0.5,0.4,1,0.7,1.5c0.1,0.3,0.3,0.6,0.5,0.9
	c0.2,0.2,0.4,0.5,0.6,0.7c0.4,0.5,0.6,1,0.9,1.6c0.5,1.1,1.1,2.1,1.8,3c0.7,1,0.8,2.2,1.7,3c0.9,0.8,1.9,1.4,3,1.9
	c1.2,0.7,2.5,1.4,3.7,2c0.1,0.1,0.2,0.1,0.3,0.2c0.1,0.1,0.1,0.2,0.1,0.4c0,1.4,0.6,2.7,1.5,3.8c0.9,1,2,1.8,3.2,2.5
	c0.7,0.4,1.5,0.8,2.1,1.3s1.1,1.3,1.2,2.2c-0.5,0.4-0.6,1-0.8,1.7c-0.3,0.9-0.8,1.9-1.3,2.7c-0.5,0.8-1.2,1.6-1.6,2.4
	c-0.4,0.7-0.6,1.4-0.9,2.1c-0.2,0.5-0.4,1-0.9,1.3c-0.8,0.6-1.9,0.3-2.9,0.1c-1-0.2-2.2-0.1-2.6,0.8c0.6,0.1,1.3,0.2,1.9,0.5
	c-1,0.4-2.2,0.3-3.4,0.3s-2.4,0.2-3.1,1c0.4,0.5,1.2,0.2,1.9,0.3c0.3,0,0.5,0.1,0.8,0.2c1.8,0.6,3.8,0,5.7-0.5
	c-0.5,0.4-1.2,0.7-2,0.8c-0.2,0-0.4,0-0.5,0.1c-0.1,0.1-0.2,0.3-0.3,0.5c-0.2,0.7-0.4,1.4-0.6,2.1c0.3,0.2,0.6,0,0.9-0.3
	c0.2-0.3,0.4-0.6,0.7-0.7c0.2-0.1,0.3-0.1,0.5-0.1c0.9-0.1,1.7-0.7,2.5-1.2c0.5-0.3,0.9-0.6,1.4-0.9c0.6-0.4,1.2-0.8,1.6-1.3
	s0.7-1.3,0.6-1.9c0.9,0.7,2,1.2,3,1.6c0.5,0.2,0.9,0.3,1.4,0.5c-0.4-1.2-1.8-1.8-3.1-2.2C27.2,72,27,71.5,27,71
	c0-0.6,0.1-1.1,0.3-1.6c1-3.3,3.2-6,4.4-9.2c0.2-0.5,0.4-1.1,0.3-1.6c0-0.6-0.2-1.1-0.7-1.5c0.4-0.3,1-0.2,1.4,0.1
	c0.4,0.3,0.7,0.8,1.1,1c0.6,0.4,1.4,0.5,1.8,1c0.5,0.5,0.4,1.3,0.4,2c0,2.4,1.3,4.7,1.4,7.1c0,0.2,0,0.4-0.1,0.6
	c-0.1,0.2-0.4,0.3-0.7,0.4c-1.8,0.4-3.8,0-5.6,0.5c-0.3,0.1-0.7,0.3-0.6,0.6c1.5,0.2,3.1,0.4,4.6,0.6c-0.3,0.2-0.6,0.3-0.9,0.4
	c-0.2,0.1-0.5,0.1-0.7,0.1c-1.3,0-2.6-0.2-3.9,0.2c-0.3,0.1-0.6,0.3-0.6,0.6c0,0.2,0.2,0.3,0.3,0.4c0.2,0.1,0.4,0.1,0.6,0.1
	c0.7,0,1.5,0,2.2,0c0.4,0,0.9,0,1.3-0.1c0.7-0.1,1.5-0.5,2.2-0.3c-0.6,0.2-1.2,0.4-1.7,0.8s-0.8,1-0.9,1.7c0.3,0.1,0.6,0.1,0.8-0.1
	c0.2-0.1,0.4-0.3,0.6-0.4c0.2-0.1,0.3,0,0.5-0.1c0.4-0.1,0.8-0.3,1.1-0.5c1-0.7,2-1.4,2.6-2.5c0.3,0.1,0.8-0.1,1.1-0.3
	c0.3-0.2,0.4-0.6,0.4-1c0.2-0.1,0.4,0,0.6,0.1c0.9,0.4,1.8,0.9,2.7,1.4c0-0.4-0.3-0.8-0.6-1.2c-1-0.9-2.4-1.3-3.1-2.4
	c-0.3-0.4-0.5-1-0.6-1.5c-0.2-0.8-0.4-1.7-0.5-2.6c-0.1-0.7-0.3-1.5-0.4-2.2c-0.1-0.5-0.2-1-0.3-1.5c-0.1-0.6-0.2-1.2-0.1-1.8
	c0.1-0.4,0.3-0.9,0-1.3c-0.3-0.3-0.8-0.3-1-0.6c0.9-0.2,1.8,0.2,2.7,0c0.3-0.1,0.6-0.2,0.8-0.3c1.3-0.5,2.7-0.8,3.8-1.7
	c0.3-0.3,0.6-0.6,1-0.9c0.3-0.2,0.5-0.3,0.7-0.5c0.2-0.2,0.4-0.5,0.5-0.7s0.4-0.5,0.7-0.5c0.5-0.1,1,0,1.5-0.1
	c0.2,0,0.4-0.1,0.6-0.2c0.1-0.1,0.2-0.2,0.3-0.3c0.4-0.3,1,0,1.4-0.3c0.3-0.2,0.4-0.5,0.4-0.8s0-0.6,0-0.9c0-0.1,0-0.2,0.1-0.2
	c0,0,0.1,0,0.2-0.1c1.1-0.1,2.2-0.2,3.3-0.2c0.2,0,0.3,0,0.5-0.1c0.2-0.1,0.2-0.4,0.2-0.6c-0.1-0.2-0.2-0.4-0.3-0.6
	c-0.4-0.5-0.8-1-1.1-1.4c1.3,0,2.7,0,4,0c0-0.6-0.4-1.2-0.9-1.6c-0.5-0.4-1-0.8-1.3-1.3c0.5,0,1,0,1.4-0.3c0.3-0.3,0.4-0.8,0.5-1.3
	c0-0.2,0.2-0.4,0.4-0.4c0.1,0,0.2,0.1,0.3,0.2c0.4,0.3,0.8,0.5,1.3,0.5c0.2,0,0.4,0,0.5-0.1c0.1-0.1,0.2-0.2,0.2-0.3
	c0.2-0.5,0.3-1.2,0.3-1.8c0.3-0.1,0.5-0.1,0.8-0.1c0.3-0.1,0.7-0.2,0.9-0.4c0.1-0.1,0.2-0.3,0.2-0.5c0.2-0.6,0.4-1.2,0.4-1.8
	c0-0.6-0.3-1.3-0.8-1.6c0.5-0.1,1-0.3,1.5-0.6c1.2-0.7,2.4-1.6,2.8-3c0-0.1,0-0.1,0-0.2c0-0.1-0.1-0.1-0.1-0.2
	c-0.9-0.9-2.2-1.1-3.5-1.3c-0.4-0.1-0.8-0.1-1.3-0.2c0.2-0.3,0.6-0.5,1-0.6c0.7-0.3,1.3-0.6,2-0.9c0.4-0.2,0.8-0.3,1.2-0.4
	s0.8-0.2,1.2-0.2c0.1,0,0.2,0,0.3-0.1c0.2-0.1,0.1-0.4,0-0.5c-0.5-0.7-1.2-1.3-2-1.6S63.3,25,62.5,25c1.7-1.1,3.5-1.9,5.4-2.8
	c-0.5-0.1-1-0.2-1.4-0.5c-0.2-0.1-0.4-0.3-0.6-0.4c-0.2-0.1-0.4-0.1-0.7-0.1c-0.8,0-1.5,0-2.3,0c0.1-0.4,0.5-0.6,0.8-0.8
	c0.4-0.1,0.8-0.2,1.2-0.3c0.4-0.1,0.7-0.4,1.1-0.5c1.4-0.6,3-0.5,4.5-0.4c-1.6-1.7-4.1-2.4-6.3-1.8c-0.2,0.1-0.5,0.1-0.6,0.3
	c0.6-1.2,1.7-2.1,2.9-2.5s2.6-0.4,3.8,0.1c0.4,0.2,0.8,0.4,1.2,0.6c0.9,0.4,1.8,0.6,2.7,1s1.7,0.9,2.1,1.8c0.3-0.5,0-1.1-0.3-1.6
	c-0.7-1.2-1.3-2.4-2.3-3.5c-0.9-1-2.1-1.9-3.4-2.3c2.6-0.4,4.9-0.7,7.5-1.1c-0.2-0.6-0.9-1-1.6-1.2c-3-1.1-6.2-1.6-9.3-1.7
	c-1,0-1.9,0-2.9,0.3c-0.8,0.3-1.5,0.7-2.2,1.1c-1,0.6-2,1.2-2.9,1.8c-0.6,0.4-1.2,0.8-1.8,1.3c-0.6,0.6-1.1,1.2-1.5,1.9
	c-1.5,2.3-2.9,4.7-3.9,7.3c-0.4,0.9-0.7,1.9-1.2,2.8c-0.5,1-1.1,2-1.6,3.1c-0.4,0.8-0.8,1.6-1.4,2.3c-0.5,0.6-1,1.1-1.6,1.6
	c-0.1,0-0.1,0.1-0.2,0.1c-0.1,0-0.1,0-0.2-0.1c-2-1-4.1-1.7-6.2-2.4c-2.6-0.8-5.1-1.6-7.7-2.3c-0.6-0.2-1.2-0.3-1.8-0.3
	c-2.8,0-4.4-3.6-5.9-6c-1-1.5-2-3.1-3-4.6c-0.5-0.8-1-1.5-1.5-2.2c-0.6-0.8-1.4-1.4-2.2-2c-0.7-0.5-1.4-0.9-1.8-1.6
	c0.3-0.1,0.6-0.3,0.9-0.5s0.4-0.6,0.3-0.9c-0.1-0.3-0.3-0.4-0.5-0.6C14.9,6.6,13.4,6.5,12,6.9z"/>
<circle class="st1" cx="9.5" cy="8.5" r="1"/>
<path class="st2" d="M15.7,43.8c0.6,0.7,1.4,1.1,2.2,1.5c4.2,2,8.8,3.4,13.4,4.1c1.4,0.2,2.8,0.3,4.2,0.3c2.1-0.1,4.1-0.7,6-1.4
	c2.4-0.8,5-1.8,6.5-3.9c0.2-0.3,0.4-0.6,0.7-0.8c0.6-0.6,1.5-0.7,2.3-0.9c1.5-0.4,2.9-1.3,3.8-2.6c0.3-0.4,0.5-0.8,0.5-1.2
	c0.1-1.2-1.1-2-2.1-2.6c-2.1-1.2-4.3-2.4-6.4-3.7c-4.1-2.3-8.2-4.7-12.7-6c-2.2-0.7-4.5-1.1-6.8-1.2c-0.4,0-0.7,0-1.1,0.1
	c-0.3,0.1-0.5,0.3-0.8,0.4c-2.9,2-5.6,4.2-8.2,6.6c-0.8,0.7-1.7,1.4-2.1,2.4c-0.6,1.3-0.6,3-0.7,4.4C14.4,40.8,14.5,42.6,15.7,43.8z
	"/>
<path class="st1" d="M49.4,43.3c-5-0.8-10.1-0.9-15-2.1c-1.2-0.3-2.5-0.7-3.4-1.5"/>
<path class="st1" d="M44.2,47.7c-2-0.2-3.9-1-5.8-1.5c-1.8-0.4-3.7-0.5-5.6-1C30,44.5,27.5,43,25.6,41"/>
<path class="st1" d="M36.4,49.7c-1-0.3-2-0.7-3-1.2c-1.6-0.7-3.1-1.7-4.6-2.6c-0.9-0.5-1.7-1-2.5-1.5c-0.6-0.4-1.3-0.8-1.8-1.3
	c-1-1-1.6-2.4-2.2-3.7"/>
<path class="st1" d="M26,48.8c-3.5-2.6-5.4-6.8-6.6-10.9"/>
<path class="st3" d="M35.8,59.8c0.7-0.3,1.4-0.8,1.9-1.4"/>
<path class="st4" d="M13.2,6.4c-2,0-3.8-0.9-5.5-1.7c0.1-0.6,0-1,0.1-1.5c0.4,0.1,0.8,0.1,1.2,0.2c0.6-1,1.3-1.9,1.9-2.9
	c0.2-0.3,0.6-0.6,0.9-0.4c0.1,0.1,0.1,0.3,0.1,0.4c0,0.6,0,1.2,0.1,1.9c0.9-0.9,1.9-1.6,3.1-2.1c-0.3,0.7-0.6,1.3-0.9,2
	c1.3-0.6,2.6-1.1,4-1.4c-0.6,0.7-1,1.5-1.2,2.4c0.7,0,1.4,0,2,0c0.2,0,0.4,0,0.5,0.2c0,0.1,0,0.2,0,0.3c-0.4,0.9-1.6,1.2-2.6,1.4
	c-1.1,0.2-2.3,0.4-3.4,0.6c-0.3,0.1-0.6,0.1-0.8,0.4C12.3,6.4,12.9,6.4,13.2,6.4z"/>
<path class="st1" d="M28.7,62.3c0.7-0.8,1.7-1.3,2.7-1.5"/>
</svg>
