<?xml version="1.0" encoding="utf-8"?>
<!-- Generator: Adobe Illustrator 23.0.6, SVG Export Plug-In . SVG Version: 6.00 Build 0)  -->
<svg version="1.1" id="Layer_1" xmlns="http://www.w3.org/2000/svg" xmlns:xlink="http://www.w3.org/1999/xlink" x="0px" y="0px"
	 viewBox="0 0 80 80" style="enable-background:new 0 0 80 80;" xml:space="preserve">
<style type="text/css">
	.st0{fill:#998675;stroke:#000000;stroke-miterlimit:10;}
	.st1{fill:#C7B299;stroke:#000000;stroke-miterlimit:10;}
	.st2{fill:#998675;}
	.st3{fill:#A67C52;}
	.st4{fill:#8C6239;}
</style>
<path class="st0" d="M62.59,33.01c-1.27-0.91-2.55-1.8-3.84-2.66c-1.78-0.2-3.06-1.19-3.86-2.53c-0.5-0.32-1-0.65-1.5-0.97
	C42.87,20.08,32.34,13.32,21.81,6.55c-4.27,5.56-7.91,11.86-9.24,18.99c-1.33,7.13-0.58,14.83,2.71,21.14
	c3.62,6.96,10.03,11.78,16.91,14.47c6.88,2.68,14.25,3.42,21.54,3.79c2.11,0.11,4.3,0.17,6.26-0.71c2.46-1.11,4.2-3.54,5.73-5.93
	c1.77-2.76,2.72-6.17,3.26-9.71v-0.06c0-0.63,0.09-1.24,0.26-1.82c0.25-2.24,0.37-4.49,0.43-6.65
	C67.52,37.43,65.18,35.06,62.59,33.01z"/>
<path class="st1" d="M69.85,42.07c0-0.47,0.06-0.93,0.15-1.38c-0.08-0.15-0.13-0.31-0.2-0.47c-2.93-3.6-6.22-6.72-9.98-9.25
	c-0.28-0.19-0.53-0.4-0.76-0.61c-2.28-0.14-3.8-1.52-4.55-3.33c-0.03-0.02-0.07-0.03-0.1-0.05c-0.45-0.16-0.85-0.43-1.23-0.74
	c-0.03-0.02-0.07-0.03-0.1-0.06c-0.28-0.23-0.55-0.47-0.83-0.7c-0.38-0.09-0.75-0.21-1.1-0.42c-0.27-0.1-0.52-0.25-0.76-0.4
	c0,0,0.01,0.01,0.01,0.01c-0.01-0.01-0.02-0.01-0.03-0.02c-0.1-0.06-0.2-0.12-0.29-0.19c-0.05-0.03-0.1-0.06-0.15-0.1
	c-0.01-0.01-0.02-0.02-0.04-0.03c-0.38-0.33-0.77-0.65-1.15-0.98c-0.02-0.02-0.05-0.05-0.07-0.07c-0.19-0.22-0.37-0.44-0.53-0.68
	c-0.19-0.16-0.39-0.31-0.56-0.52l-0.3-0.33c-0.33-0.22-0.64-0.47-0.92-0.79c-0.38-0.14-0.75-0.31-1.11-0.53
	c-0.21-0.18-0.42-0.36-0.64-0.54c-0.07-0.04-0.14-0.06-0.21-0.1c-0.05-0.02-0.08-0.05-0.13-0.07c-0.34-0.13-0.67-0.28-0.99-0.49
	c-0.33-0.28-0.67-0.57-1-0.85c-0.02-0.01-0.04-0.02-0.06-0.03c-0.7-0.25-1.31-0.68-1.83-1.29c-0.07-0.08-0.15-0.16-0.22-0.24
	c0,0,0,0,0,0c-0.25-0.1-0.48-0.21-0.7-0.35c-1.53-0.09-2.72-0.75-3.57-1.72c-1.63-0.25-2.83-1.17-3.59-2.41
	c-0.19-0.09-0.38-0.17-0.56-0.29c-0.09-0.08-0.18-0.15-0.27-0.23c-0.35-0.09-0.69-0.23-1.01-0.41c-0.07-0.02-0.13-0.07-0.19-0.1
	c-0.42-0.17-0.87-0.34-1.25-0.6c-0.03-0.02-0.05-0.04-0.07-0.06c-0.36-0.3-0.71-0.6-1.07-0.91c-0.32-0.1-0.63-0.25-0.94-0.44
	c-0.45-0.14-0.88-0.34-1.3-0.6c-0.18-0.16-0.37-0.31-0.55-0.47c-0.22-0.09-0.42-0.21-0.62-0.33c0,0,0.01,0.01,0.01,0.01
	c-0.01-0.01-0.02-0.01-0.03-0.02c-0.1-0.06-0.2-0.12-0.29-0.19c-0.05-0.03-0.1-0.06-0.15-0.1C24.01,7.62,24,7.61,23.99,7.6
	c-0.06-0.05-0.12-0.1-0.17-0.15c-0.25-0.09-0.5-0.19-0.74-0.33c-0.23-0.08-0.44-0.22-0.66-0.34c-0.3-0.12-0.6-0.27-0.89-0.45
	c-0.07-0.06-0.15-0.12-0.22-0.19c-0.81,0.68-1.57,1.56-2.28,2.54c-1.48,3-2.63,6.17-3.26,9.53c-1.33,7.13-0.58,14.83,2.71,21.14
	c3.62,6.96,10.03,11.78,16.91,14.47c6.88,2.68,14.25,3.42,21.54,3.79c2.11,0.11,4.3,0.17,6.26-0.71c2.46-1.11,4.2-3.54,5.73-5.93
	c0.03-0.04,0.05-0.09,0.08-0.13c-0.01-0.14-0.01-0.27-0.01-0.41V50.2c0-0.16,0.02-0.31,0.03-0.46c-0.02-0.24-0.04-0.48-0.03-0.73
	v-0.48c0-0.84,0.15-1.64,0.44-2.4v-0.23c0-0.86,0.16-1.67,0.45-2.44c-0.01-0.14-0.02-0.28-0.02-0.43V42.07z"/>
<ellipse class="st2" cx="28.5" cy="21" rx="7" ry="2.5"/>
<ellipse class="st3" cx="44.5" cy="34" rx="7" ry="2.5"/>
<ellipse class="st4" cx="49.5" cy="45.5" rx="6" ry="3"/>
</svg>
