<?xml version="1.0" encoding="utf-8"?>
<!-- Generator: Adobe Illustrator 23.0.6, SVG Export Plug-In . SVG Version: 6.00 Build 0)  -->
<svg version="1.1" id="Layer_1" xmlns="http://www.w3.org/2000/svg" xmlns:xlink="http://www.w3.org/1999/xlink" x="0px" y="0px"
	 viewBox="0 0 80 80" style="enable-background:new 0 0 80 80;" xml:space="preserve">
<style type="text/css">
	.st0{fill:#E6E6E6;}
	.st1{fill:#0071BC;stroke:#000000;stroke-width:0.25;stroke-miterlimit:10;}
	.st2{fill:none;}
	.st3{font-family:'MyriadPro-Regular';}
	.st4{font-size:12px;}
</style>
<g>
	<g>
		<ellipse class="st0" cx="37.5" cy="69.5" rx="12.38" ry="4.38"/>
		<path d="M37.5,65.25c6.64,0,12.25,1.95,12.25,4.25s-5.61,4.25-12.25,4.25S25.25,71.8,25.25,69.5S30.86,65.25,37.5,65.25 M37.5,65
			C30.6,65,25,67.01,25,69.5S30.6,74,37.5,74S50,71.99,50,69.5S44.4,65,37.5,65L37.5,65z"/>
	</g>
	<g>
		<rect x="25.13" y="24.13" class="st0" width="24.75" height="45.75"/>
		<path d="M49.75,24.25v45.5h-24.5v-45.5H49.75 M50,24H25v46h25V24L50,24z"/>
	</g>
	<g>
		<ellipse class="st0" cx="37.5" cy="24.5" rx="12.38" ry="4.38"/>
		<path d="M37.5,20.25c6.64,0,12.25,1.95,12.25,4.25s-5.61,4.25-12.25,4.25S25.25,26.8,25.25,24.5S30.86,20.25,37.5,20.25 M37.5,20
			C30.6,20,25,22.01,25,24.5S30.6,29,37.5,29S50,26.99,50,24.5S44.4,20,37.5,20L37.5,20z"/>
	</g>
	<g>
		<rect x="26.13" y="69.13" class="st0" width="22.75" height="0.75"/>
		<path class="st0" d="M48.75,69.25v0.5h-22.5v-0.5H48.75 M49,69H26v1h23V69L49,69z"/>
	</g>
	<g>
		<path class="st0" d="M27,69.26"/>
		<g>
			<path class="st0" d="M27,70.76c1.93,0,1.93-3,0-3C25.07,67.76,25.07,70.76,27,70.76L27,70.76z"/>
		</g>
	</g>
	<g>
		<path class="st0" d="M26.81,69.45"/>
		<g>
			<path class="st0" d="M26.81,70.95c1.93,0,1.93-3,0-3C24.88,67.95,24.87,70.95,26.81,70.95L26.81,70.95z"/>
		</g>
	</g>
	<g>
		<path class="st0" d="M26.78,69.54"/>
		<g>
			<path class="st0" d="M26.78,71.04c1.93,0,1.93-3,0-3C24.85,68.04,24.84,71.04,26.78,71.04L26.78,71.04z"/>
		</g>
	</g>
	<g>
		<path class="st0" d="M26.81,69.48"/>
		<g>
			<path class="st0" d="M26.81,70.98c1.93,0,1.93-3,0-3C24.88,67.98,24.87,70.98,26.81,70.98L26.81,70.98z"/>
		</g>
	</g>
	<g>
		<path class="st0" d="M26.71,69.38"/>
		<g>
			<path class="st0" d="M26.71,70.88c1.93,0,1.93-3,0-3C24.78,67.88,24.78,70.88,26.71,70.88L26.71,70.88z"/>
		</g>
	</g>
	<g>
		<path class="st0" d="M48.16,69.54"/>
		<g>
			<path class="st0" d="M48.16,71.04c1.93,0,1.93-3,0-3C46.23,68.04,46.23,71.04,48.16,71.04L48.16,71.04z"/>
		</g>
	</g>
	<g>
		<path class="st0" d="M48.32,69.57"/>
		<g>
			<path class="st0" d="M48.32,71.07c1.93,0,1.93-3,0-3C46.39,68.07,46.39,71.07,48.32,71.07L48.32,71.07z"/>
		</g>
	</g>
	<g>
		<path class="st0" d="M37.56,71.36"/>
		<g>
			<path class="st0" d="M37.56,72.86c1.93,0,1.93-3,0-3C35.63,69.86,35.63,72.86,37.56,72.86L37.56,72.86z"/>
		</g>
	</g>
	<g>
		<path class="st0" d="M36.19,70.34c-2.64-0.16-5.28-0.4-7.91-0.72c2.39,0.41,4.82,0.45,7.24,0.49c2.13,0.04,4.27,0.07,6.37-0.27
			c1.43-0.23,2.93-0.62,4.28-0.09"/>
		<g>
			<path class="st0" d="M36.19,68.84c-2.64-0.17-5.28-0.4-7.91-0.72c-1.66-0.2-2.07,2.67-0.4,2.95c3.08,0.5,6.21,0.55,9.32,0.56
				c1.46,0.01,2.91-0.05,4.36-0.24c1.39-0.18,2.84-0.67,4.21-0.19c1.83,0.63,2.61-2.27,0.8-2.89c-1.47-0.51-2.97-0.27-4.46-0.01
				c-1.4,0.24-2.81,0.33-4.23,0.34c-3.05,0.02-6.18,0.04-9.2-0.45c-0.13,0.98-0.27,1.96-0.4,2.95c2.63,0.31,5.27,0.55,7.91,0.72
				C38.12,71.97,38.11,68.97,36.19,68.84L36.19,68.84z"/>
		</g>
	</g>
</g>
<ellipse class="st1" cx="37.5" cy="23" rx="12.5" ry="6"/>
<ellipse class="st1" cx="37.5" cy="20" rx="12.5" ry="6"/>
<ellipse class="st1" cx="37.5" cy="17" rx="12.5" ry="6"/>
<ellipse class="st1" cx="38" cy="14.5" rx="11" ry="4.5"/>
<ellipse class="st1" cx="37.94" cy="12.69" rx="10.06" ry="4.31"/>
<ellipse class="st1" cx="38.5" cy="10" rx="9.5" ry="4"/>
<rect x="-13.93" y="33.25" class="st2" width="56.02" height="43.84"/>
<text transform="matrix(-1.346898e-10 1 -1 -1.346898e-10 33.5688 33.252)" class="st3 st4">CREAM</text>
</svg>
