<?xml version="1.0" encoding="utf-8"?>
<!-- Generator: Adobe Illustrator 23.0.6, SVG Export Plug-In . SVG Version: 6.00 Build 0)  -->
<svg version="1.1" id="Layer_1" xmlns="http://www.w3.org/2000/svg" xmlns:xlink="http://www.w3.org/1999/xlink" x="0px" y="0px"
	 viewBox="0 0 80 80" style="enable-background:new 0 0 80 80;" xml:space="preserve">
<style type="text/css">
	.st0{fill:#D1D1D1;stroke:#000000;stroke-width:0.5;stroke-miterlimit:10;}
	.st1{fill:#FFE458;stroke:#000000;stroke-width:0.5;stroke-miterlimit:10;}
	.st2{fill:#FFFFFF;stroke:#000000;stroke-width:0.5;stroke-miterlimit:10;}
	.st3{fill:#D1D1D1;}
	.st4{font-family:'ArialMT';}
	.st5{font-size:12px;}
	.st6{fill:none;}
</style>
<line class="st0" x1="56.05" y1="4.87" x2="57.48" y2="5.63"/>
<ellipse class="st0" cx="38.98" cy="37.13" rx="21.5" ry="14.5"/>
<ellipse class="st0" cx="39.98" cy="62.13" rx="13.5" ry="9.5"/>
<line class="st0" x1="60.48" y1="38.63" x2="53.48" y2="63.63"/>
<ellipse class="st1" cx="38.98" cy="37.13" rx="19" ry="11.5"/>
<line class="st0" x1="26.48" y1="61.63" x2="17.48" y2="39.63"/>
<polyline class="st2" points="45.48,34.63 57.3,5.12 55.98,4.13 42.48,33.63 "/>
<g>
	<g>
		<path class="st3" d="M27.75,61.59c1.93,0,1.93-3,0-3S25.81,61.59,27.75,61.59L27.75,61.59z"/>
	</g>
</g>
<g>
	<g>
		<path class="st3" d="M27.68,61.49c1.93,0,1.93-3,0-3S25.75,61.49,27.68,61.49L27.68,61.49z"/>
	</g>
</g>
<g>
	<g>
		<path class="st3" d="M27.52,61.33c1.93,0,1.93-3,0-3S25.59,61.33,27.52,61.33L27.52,61.33z"/>
	</g>
</g>
<g>
	<g>
		<path class="st3" d="M27.49,61.24c1.93,0,1.93-3,0-3S25.56,61.24,27.49,61.24L27.49,61.24z"/>
	</g>
</g>
<g>
	<g>
		<path class="st3" d="M27.78,61.97c1.93,0,1.93-3,0-3S25.84,61.97,27.78,61.97L27.78,61.97z"/>
	</g>
</g>
<g>
	<g>
		<path class="st3" d="M27.97,62.42c1.93,0,1.93-3,0-3S26.04,62.42,27.97,62.42L27.97,62.42z"/>
	</g>
</g>
<line class="st0" x1="45.48" y1="34.63" x2="42.48" y2="33.63"/>
<line class="st0" x1="43.48" y1="33.63" x2="49.48" y2="20.63"/>
<path id="SVGID_x5F_1_x5F_" class="st3" d="M7.98,60.13h44"/>
<text transform="matrix(1 0 0 1 -0.0175 -0.8696)" class="st3 st4 st5"> </text>
<rect x="26.53" y="52.16" class="st3" width="26.75" height="8.31"/>
<rect x="54.04" y="45.82" transform="matrix(0.9579 0.287 -0.287 0.9579 18.0845 -13.4215)" class="st3" width="1.56" height="18.3"/>
<rect x="52.49" y="46.92" transform="matrix(0.9579 0.287 -0.287 0.9579 18.3359 -12.9315)" class="st3" width="1.56" height="18.3"/>
<rect x="45.8" y="47.51" transform="matrix(0.7071 0.7071 -0.7071 0.7071 54.0468 -17.1564)" class="st3" width="3.86" height="18.3"/>
<rect x="45.69" y="43.23" transform="matrix(0.3789 0.9255 -0.9255 0.3789 77.5107 -10.7364)" class="st3" width="2.13" height="18.3"/>
<rect x="42.98" y="43.48" transform="matrix(0.2168 0.9762 -0.9762 0.2168 85.8783 -1.7767)" class="st3" width="2.13" height="18.3"/>
<rect x="39.09" y="43.95" transform="matrix(0.1252 0.9921 -0.9921 0.1252 87.8099 6.6167)" class="st3" width="2.13" height="18.3"/>
<rect x="28.55" y="44.33" transform="matrix(-0.5849 0.8111 -0.8111 -0.5849 90.5785 60.5966)" class="st3" width="2.47" height="18.3"/>
<rect x="30.46" y="43.95" transform="matrix(-0.457 0.8894 -0.8894 -0.457 93.169 49.3329)" class="st3" width="2.13" height="18.3"/>
<rect x="34.28" y="44.33" transform="matrix(-0.3179 0.9481 -0.9481 -0.3179 97.283 36.9619)" class="st3" width="2.13" height="18.3"/>
<rect x="35.62" y="43.95" transform="matrix(-0.1827 0.9832 -0.9832 -0.1827 95.5961 26.7431)" class="st3" width="2.13" height="18.3"/>
<rect x="39.9" y="43.85" transform="matrix(-1.836970e-16 1 -1 -1.836970e-16 93.9644 12.0387)" class="st3" width="2.13" height="18.3"/>
<rect x="37.53" y="40.28" transform="matrix(-1.836970e-16 1 -1 -1.836970e-16 87.1744 11.6815)" class="st3" width="0.43" height="18.3"/>
<rect x="52.82" y="45.38" transform="matrix(0.5 0.866 -0.866 0.5 69.5258 -22.123)" class="st3" width="2.2" height="7.54"/>
<rect x="47.12" y="47.86" transform="matrix(0.3127 0.9499 -0.9499 0.3127 82.1896 -10.3221)" class="st3" width="2.2" height="7.54"/>
<rect x="49.87" y="46.88" transform="matrix(0.4198 0.9076 -0.9076 0.4198 75.5423 -16.8737)" class="st3" width="2.2" height="7.54"/>
<rect x="55.75" y="45.03" transform="matrix(0.7071 0.7071 -0.7071 0.7071 49.662 -26.0854)" class="st3" width="1.13" height="3.76"/>
<rect x="54.72" y="45.6" transform="matrix(0.6079 0.794 -0.794 0.6079 59.5744 -25.2875)" class="st3" width="1.34" height="4.14"/>
<rect x="57.27" y="44.97" transform="matrix(0.7708 0.6371 -0.6371 0.7708 42.1533 -26.3595)" class="st3" width="0.87" height="0.87"/>
<rect x="57.64" y="43.75" transform="matrix(0.7708 0.6371 -0.6371 0.7708 41.7894 -26.5938)" class="st3" width="0.42" height="2.06"/>
<rect x="57.56" y="44.49" transform="matrix(0.9579 0.287 -0.287 0.9579 15.5069 -14.7132)" class="st3" width="0.76" height="2.09"/>
<rect x="58.15" y="43.42" transform="matrix(0.9579 0.287 -0.287 0.9579 15.381 -14.827)" class="st3" width="0.22" height="3.25"/>
<rect x="58.45" y="43.36" transform="matrix(0.7708 0.6371 -0.6371 0.7708 41.2733 -27.2793)" class="st3" width="0.2" height="0.71"/>
<rect x="58.8" y="43" transform="matrix(0.7917 0.6109 -0.6109 0.7917 38.6696 -26.9185)" class="st3" width="0.04" height="0.5"/>
<rect x="23.68" y="47.45" transform="matrix(0.9255 -0.3789 0.3789 0.9255 -18.6336 13.4393)" class="st3" width="2.3" height="13.25"/>
<rect x="26.53" y="50.04" transform="matrix(0.9255 -0.3789 0.3789 0.9255 -19.4036 14.712)" class="st3" width="2.3" height="13.25"/>
<rect x="23.14" y="46.88" transform="matrix(0.9255 -0.3789 0.3789 0.9255 -18.2058 13.0418)" class="st3" width="1.8" height="11.81"/>
<rect x="20.34" y="43.38" transform="matrix(0.9255 -0.3789 0.3789 0.9255 -15.8369 11.1577)" class="st3" width="0.2" height="4.89"/>
<rect x="21.58" y="46.12" transform="matrix(0.9255 -0.3789 0.3789 0.9255 -16.7502 11.9944)" class="st3" width="1.06" height="4.89"/>
<rect x="21.33" y="45.57" transform="matrix(0.9255 -0.3789 0.3789 0.9255 -16.5743 11.8013)" class="st3" width="0.74" height="4.89"/>
<rect x="21.42" y="43.86" transform="matrix(0.7684 -0.6399 0.6399 0.7684 -24.6503 24.4897)" class="st3" width="0.2" height="4.89"/>
<rect x="22.01" y="44.27" transform="matrix(0.5849 -0.8111 0.8111 0.5849 -28.6859 37.3691)" class="st3" width="0.32" height="4.89"/>
<rect x="20.23" y="44.7" transform="matrix(0.9255 -0.3789 0.3789 0.9255 -15.7506 11.121)" class="st3" width="0.3" height="1.76"/>
<path id="SVGID_x5F_1_x5F__1_" class="st6" d="M11.83,53.13c2.53,2.44,5.85,3.94,9.23,5.02c9.13,2.9,18.92,2.97,28.52,2.74
	c3.39-0.08,7.27-0.44,9.28-3.11"/>
<text><textPath  xlink:href="#SVGID_x5F_1_x5F__1_" startOffset="41.1946%">
<tspan  style="font-family:'MyriadPro-Regular'; font-size:8.1933px;">custard</tspan></textPath>
</text>
</svg>
