<?xml version="1.0" encoding="utf-8"?>
<!-- Generator: Adobe Illustrator 23.0.6, SVG Export Plug-In . SVG Version: 6.00 Build 0)  -->
<svg version="1.1" id="Layer_1" xmlns="http://www.w3.org/2000/svg" xmlns:xlink="http://www.w3.org/1999/xlink" x="0px" y="0px"
	 viewBox="0 0 80 80" style="enable-background:new 0 0 80 80;" xml:space="preserve">
<style type="text/css">
	.st0{fill:#754C24;}
	.st1{fill:#A67C52;}
	.st2{fill:none;}
	.st3{font-family:'MyriadPro-Regular';}
	.st4{font-size:5px;}
</style>
<g>
	<ellipse class="st0" cx="37" cy="36" rx="22.75" ry="12.75"/>
	<path d="M37,23.5c12.41,0,22.5,5.61,22.5,12.5S49.41,48.5,37,48.5S14.5,42.89,14.5,36S24.59,23.5,37,23.5 M37,23
		c-12.7,0-23,5.82-23,13s10.3,13,23,13s23-5.82,23-13S49.7,23,37,23L37,23z"/>
</g>
<g>
	<ellipse class="st1" cx="37" cy="35" rx="22.75" ry="12.75"/>
	<path d="M37,22.5c12.41,0,22.5,5.61,22.5,12.5S49.41,47.5,37,47.5S14.5,41.89,14.5,35S24.59,22.5,37,22.5 M37,22
		c-12.7,0-23,5.82-23,13s10.3,13,23,13s23-5.82,23-13S49.7,22,37,22L37,22z"/>
</g>
<rect x="26.93" y="33.29" class="st2" width="24.8" height="4.21"/>
<text transform="matrix(1 0 0 1 26.9253 36.8369)" class="st3 st4">Digestive</text>
<circle cx="37.5" cy="41.5" r="0.5"/>
<circle cx="33.5" cy="41.5" r="0.5"/>
<circle cx="47.5" cy="35.5" r="0.5"/>
<circle cx="45.5" cy="38.5" r="0.5"/>
<circle cx="41.5" cy="40.5" r="0.5"/>
<circle cx="29.5" cy="40.5" r="0.5"/>
<circle cx="27.5" cy="39.5" r="0.5"/>
<circle cx="25.5" cy="37.5" r="0.5"/>
<circle cx="24.5" cy="33.5" r="0.5"/>
<circle cx="27.5" cy="30.5" r="0.5"/>
<circle cx="32.5" cy="29.5" r="0.5"/>
<circle cx="36.5" cy="28.5" r="0.5"/>
<circle cx="41.5" cy="29.5" r="0.5"/>
<circle cx="45.5" cy="31.5" r="0.5"/>
</svg>
