<?xml version="1.0" encoding="utf-8"?>
<!-- Generator: Adobe Illustrator 23.0.6, SVG Export Plug-In . SVG Version: 6.00 Build 0)  -->
<svg version="1.1" id="Layer_1" xmlns="http://www.w3.org/2000/svg" xmlns:xlink="http://www.w3.org/1999/xlink" x="0px" y="0px"
	 viewBox="0 0 80 80" style="enable-background:new 0 0 80 80;" xml:space="preserve">
<style type="text/css">
	.st0{fill:#333333;}
	.st1{fill:#A67C52;}
	.st2{fill:#666666;}
	.st3{fill:#4D4D4D;}
	.st4{fill:#F2F2F2;}
	.st5{fill:#FBB03B;}
	.st6{fill:#FFFFFF;}
</style>
<g>
	<ellipse class="st0" cx="32.5" cy="34.5" rx="25.38" ry="24.38"/>
	<path d="M32.5,10.25c13.92,0,25.25,10.88,25.25,24.25S46.42,58.75,32.5,58.75S7.25,47.87,7.25,34.5S18.58,10.25,32.5,10.25
		 M32.5,10C18.42,10,7,20.97,7,34.5S18.42,59,32.5,59S58,48.03,58,34.5S46.58,10,32.5,10L32.5,10z"/>
</g>
<g>
	
		<rect x="57.49" y="46.92" transform="matrix(0.7071 -0.7071 0.7071 0.7071 -24.4431 59.7181)" class="st1" width="4.75" height="24.88"/>
	<path d="M52.75,49.06l17.42,17.42l-3.18,3.18L49.56,52.25L52.75,49.06 M52.75,48.71l-3.54,3.54l17.77,17.77l3.54-3.54L52.75,48.71
		L52.75,48.71z"/>
</g>
<g>
	<ellipse class="st2" cx="32.5" cy="34.5" rx="24.38" ry="23.38"/>
	<path d="M32.5,11.25c13.37,0,24.25,10.43,24.25,23.25S45.87,57.75,32.5,57.75S8.25,47.32,8.25,34.5S19.13,11.25,32.5,11.25
		 M32.5,11C18.97,11,8,21.52,8,34.5S18.97,58,32.5,58S57,47.48,57,34.5S46.03,11,32.5,11L32.5,11z"/>
</g>
<g>
	<circle class="st3" cx="67" cy="66" r="0.88"/>
	<path d="M67,65.25c0.41,0,0.75,0.34,0.75,0.75s-0.34,0.75-0.75,0.75s-0.75-0.34-0.75-0.75S66.59,65.25,67,65.25 M67,65
		c-0.55,0-1,0.45-1,1s0.45,1,1,1s1-0.45,1-1S67.55,65,67,65L67,65z"/>
</g>
<g>
	<ellipse class="st4" cx="42" cy="33.5" rx="9.88" ry="12.38"/>
	<path d="M42,21.25c5.38,0,9.75,5.5,9.75,12.25S47.38,45.75,42,45.75s-9.75-5.5-9.75-12.25S36.62,21.25,42,21.25 M42,21
		c-5.52,0-10,5.6-10,12.5S36.48,46,42,46s10-5.6,10-12.5S47.52,21,42,21L42,21z"/>
</g>
<g>
	<circle class="st5" cx="44" cy="32" r="3.88"/>
	<path class="st6" d="M44,28.25c2.07,0,3.75,1.68,3.75,3.75s-1.68,3.75-3.75,3.75s-3.75-1.68-3.75-3.75S41.93,28.25,44,28.25 M44,28
		c-2.21,0-4,1.79-4,4s1.79,4,4,4s4-1.79,4-4S46.21,28,44,28L44,28z"/>
</g>
</svg>
