<?xml version="1.0" encoding="utf-8"?>
<!-- Generator: Adobe Illustrator 23.0.6, SVG Export Plug-In . SVG Version: 6.00 Build 0)  -->
<svg version="1.1" id="Layer_1" xmlns="http://www.w3.org/2000/svg" xmlns:xlink="http://www.w3.org/1999/xlink" x="0px" y="0px"
	 viewBox="0 0 80 80" style="enable-background:new 0 0 80 80;" xml:space="preserve">
<style type="text/css">
	.st0{fill:#C69C6D;}
	.st1{fill:#1A1A1A;}
	.st2{fill:#333333;stroke:#000000;stroke-width:0.5;stroke-miterlimit:10;}
</style>
<g>
	<path class="st0" d="M40,51.75c-11.23,0-20.38-5.34-20.38-11.91c0-6.57,9.14-11.91,20.38-11.91c11.23,0,20.38,5.34,20.38,11.91
		C60.38,46.41,51.23,51.75,40,51.75z"/>
	<path d="M40,28.18c11.1,0,20.13,5.23,20.13,11.66S51.1,51.5,40,51.5s-20.13-5.23-20.13-11.66S28.9,28.18,40,28.18 M40,27.68
		c-11.39,0-20.63,5.44-20.63,12.16S28.61,52,40,52s20.63-5.44,20.63-12.16S51.39,27.68,40,27.68L40,27.68z"/>
</g>
<g>
	<path class="st1" d="M40,48.28c-11.99,0-21.75-6.12-21.75-13.65c0-7.52,9.76-13.64,21.75-13.64s21.75,6.12,21.75,13.64
		C61.75,42.16,51.99,48.28,40,48.28z"/>
	<path d="M40,21.24c11.86,0,21.5,6.01,21.5,13.39S51.86,48.03,40,48.03s-21.5-6.01-21.5-13.39S28.14,21.24,40,21.24 M40,20.74
		c-12.15,0-22,6.22-22,13.89s9.85,13.89,22,13.89s22-6.22,22-13.89S52.15,20.74,40,20.74L40,20.74z"/>
</g>
<g>
	<ellipse cx="40" cy="30.29" rx="17.63" ry="11.04"/>
	<path d="M40,19.5c9.58,0,17.38,4.84,17.38,10.79S49.58,41.08,40,41.08s-17.38-4.84-17.38-10.79S30.42,19.5,40,19.5 M40,19
		c-9.87,0-17.88,5.05-17.88,11.29s8,11.29,17.88,11.29s17.88-5.05,17.88-11.29S49.87,19,40,19L40,19z"/>
</g>
<rect x="33.52" y="21.17" transform="matrix(0.866 0.5 -0.5 0.866 19.3787 -12.979)" class="st2" width="0.78" height="17.01"/>
<rect x="44.46" y="22.9" transform="matrix(0.866 0.5 -0.5 0.866 21.711 -18.2182)" class="st2" width="0.78" height="17.01"/>
<rect x="39.46" y="21.9" transform="matrix(0.866 0.5 -0.5 0.866 20.5412 -15.8521)" class="st2" width="0.78" height="17.01"/>
<rect x="41.46" y="17.9" transform="matrix(-0.4112 0.9115 -0.9115 -0.4112 83.13 -0.8858)" class="st2" width="0.78" height="17.01"/>
<rect x="38.46" y="23.9" transform="matrix(-0.4681 0.8837 -0.8837 -0.4681 85.6724 13.2417)" class="st2" width="0.78" height="17.01"/>
</svg>
