<?xml version="1.0" encoding="utf-8"?>
<!-- Generator: Adobe Illustrator 23.0.6, SVG Export Plug-In . SVG Version: 6.00 Build 0)  -->
<svg version="1.1" id="Layer_1" xmlns="http://www.w3.org/2000/svg" xmlns:xlink="http://www.w3.org/1999/xlink" x="0px" y="0px"
	 viewBox="0 0 80 80" style="enable-background:new 0 0 80 80;" xml:space="preserve">
<style type="text/css">
	.st0{fill:none;stroke:#000000;stroke-width:0.25;stroke-miterlimit:10;}
	.st1{fill:#ECECEC;stroke:#000000;stroke-width:0.25;stroke-miterlimit:10;}
	.st2{fill:#BBBBBB;stroke:#000000;stroke-width:0.25;stroke-miterlimit:10;}
	.st3{fill:none;}
	.st4{fill:#A9A9A9;}
	.st5{fill:#999999;}
	.st6{fill:#D8D8D8;}
	.st7{font-family:'ArialMT';}
	.st8{font-size:8.5218px;}
</style>
<line class="st0" x1="32.3" y1="54.9" x2="17" y2="42.8"/>
<path class="st1" d="M32.3,54.9v-28"/>
<path class="st1" d="M48.8,46.4l-16.9,8.9L17,42.8v-28l14.9,11.9"/>
<polyline class="st2" points="38.6,14.8 48.8,18.4 48.8,46.4 48.8,18.4 "/>
<path class="st0" d="M32.3,26.9L17,14.8c0,3.3,0,4.6,0,5.4c0,0.9,0,22.6,0,22.6v-28"/>
<polyline class="st0" points="17,14.8 32.3,26.9 38.6,14.8 "/>
<line class="st0" x1="17.3" y1="15.2" x2="23.6" y2="3"/>
<polyline class="st2" points="32.3,26.9 48.8,18.4 32.3,26.9 38.6,14.8 23,3 "/>
<polygon class="st3" points="51.4,44 27.6,31.8 35.2,18.1 59,30.2 "/>
<path class="st4" d="M23.2,3.4c0.8,1.4,1.8,2.8,2.8,4c0.9,1.1,1.9,2.1,2.6,3.2c1,1.5,1.5,3.2,2,4.9c0.4,1.3,0.8,2.6,1.2,3.9
	c0.2,0.8,0.5,1.6,0.6,2.4c0.1,0.4,0.1,0.9,0.1,1.3c0,1,0.1,2,0.1,3c0,0.2-0.1,0.5-0.3,0.4c-0.1,0-0.1,0-0.2-0.1
	c-1.7-1.3-3.3-2.7-5-4c-0.4-0.3-0.7-0.6-1.1-0.9c-2.8-2.3-5.7-4.6-8.5-6.9c0.5-1.6,1-3.3,1.9-4.8c0.4-0.6,0.8-1.2,1.2-1.8
	C21.7,6.7,22.4,5.1,23.2,3.4z"/>
<path class="st5" d="M37.8,16.6c-0.6,1-0.9,1.8-1.3,2.4c-1.6,2.5-2.8,5.2-4.4,7.7c0.8,0.2,1.5-0.3,2.2-0.7c4.5-2.8,10.2-3.2,14-6.9
	c0.1-0.1,0.2-0.2,0.1-0.4c0-0.1-0.1-0.1-0.2-0.1c-1-0.4-2.1-0.9-3.1-1.3c-1.6-0.7-3.1-1.3-4.8-1.9c-0.4-0.2-1.8-1-2.1-0.5
	C38.1,15.4,38.1,16.2,37.8,16.6z"/>
<rect x="19.9" y="19.6" transform="matrix(0.6167 -0.7872 0.7872 0.6167 -14.5829 32.1409)" class="st3" width="11.7" height="22.9"/>
<line class="st0" x1="32.2" y1="26.6" x2="32.2" y2="55.3"/>
<line class="st0" x1="32.6" y1="26.2" x2="48.8" y2="18.4"/>
<path class="st6" d="M33.9,25.9c-0.7,0.3-1.5,0.9-1.4,1.6c0.1,0.5,0.4,0.8,0.7,1.1c1.7,1.7,2.9,3.8,4.3,5.9c3,4.6,6.9,8.5,11.4,11.6
	c0-6-0.1-11.9-0.1-17.9c0-1.5,0-3,0-4.4c0-1.1,0.5-3.5,0-4.4c-0.5-0.9-1.1-0.2-2,0.2c-1.3,0.7-2.7,1.3-4,1.9c-1.5,0.7-3,1.4-4.4,2.1
	C37.3,24.3,35.1,25.9,33.9,25.9z"/>
<text transform="matrix(1.0454 0 0 1 32.1874 36.1847)" class="st7 st8">Milk</text>
</svg>
