<?xml version="1.0" encoding="utf-8"?>
<!-- Generator: Adobe Illustrator 23.0.6, SVG Export Plug-In . SVG Version: 6.00 Build 0)  -->
<svg version="1.1" id="Layer_1" xmlns="http://www.w3.org/2000/svg" xmlns:xlink="http://www.w3.org/1999/xlink" x="0px" y="0px"
	 viewBox="0 0 80 80" style="enable-background:new 0 0 80 80;" xml:space="preserve">
<style type="text/css">
	.st0{fill:#A67C52;}
	.st1{fill:#F2EBD9;}
</style>
<path class="st0" d="M22.64,13.96c-0.66,0.66-1.22,0.96-1.63,1.11c-0.21,0.08-0.57,0.19-0.79,0.55c-0.13,0.21-0.07,0.29-0.2,0.72
	c-0.14,0.47-0.23,0.5-0.54,1.27c-0.15,0.38-0.23,0.57-0.25,0.78c-0.02,0.19-0.06,0.63,0.12,0.91c0.02,0.03,0.03,0.05,0.03,0.09
	c-0.01,0.18-0.51,0.15-0.64,0.44c-0.07,0.15,0.04,0.25,0.1,0.66c0.02,0.15,0.08,0.53,0,0.89c-0.08,0.35-0.23,0.41-0.49,0.89
	c-0.14,0.25-0.23,0.48-0.4,0.94c-0.29,0.78-0.43,1.18-0.49,1.66c-0.09,0.74,0.11,0.71,0.05,1.77c-0.03,0.59-0.11,0.74-0.1,1.33
	c0,0.14,0.01,0.38,0.1,1.11c0.11,0.86,0.16,1.03,0.25,1.72c0.15,1.15,0.07,1.15,0.2,1.77c0.16,0.82,0.31,0.87,0.49,1.61
	c0.22,0.89,0.12,1.26,0.2,2.66c0.08,1.41,0.2,1.3,0.25,2.38c0.08,1.61-0.19,1.83-0.3,4.26c-0.06,1.3,0.02,1.28-0.05,2.66
	c-0.07,1.46-0.19,2.36-0.3,3.32c-0.35,3.23-0.07,3.3-0.4,6.76c-0.17,1.83-0.29,2.24-0.45,4.32c0,0-0.28,3.76,0.69,4.98
	c0.28,0.36,0.64,0.66,0.64,0.66c0.15,0.13,0.27,0.23,0.45,0.33c0.21,0.12,0.51,0.3,0.89,0.28c0.26-0.01,0.28-0.1,0.59-0.11
	c0.19,0,0.25,0.03,0.49,0.06c0.19,0.02,0.38,0.01,0.74,0c0.26-0.01,0.53-0.02,0.89-0.06c0.5-0.05,0.53-0.09,1.14-0.17
	c0.95-0.13,0.95-0.05,1.29-0.17c0.49-0.17,0.56-0.35,0.94-0.39c0.42-0.04,0.75,0.15,0.89,0.22c1.41,0.71,3.21-0.74,4.99-0.39
	c0.26,0.05,0.86,0.21,1.48-0.06c0.15-0.06,0.22-0.11,0.4-0.17c0.54-0.16,1,0,1.19,0.06c0.47,0.14,0.34-0.03,2.13,0
	c0.43,0.01,0.26,0.01,2.37,0.11c0.76,0.03,0.83,0.04,1.19,0.06c1.19,0.06,1.24,0.1,1.78,0.11c1.14,0.03,1.09-0.1,1.98-0.06
	c0.81,0.04,0.81,0.16,1.93,0.28c0.39,0.04,0.94,0.07,2.03,0.11c1.11,0.05,1.66,0.07,2.03,0.06c0.63-0.02,0.89-0.08,1.53-0.06
	c0.51,0.02,0.71,0.06,1.19,0.11c1.75,0.17,2.01-0.17,3.07,0.11c0.82,0.22,0.63,0.41,1.43,0.61c0.44,0.11,1.65,0.38,2.77-0.33
	c0.24-0.15,0.65-0.41,0.94-0.94c0.24-0.43,0.29-0.88,0.4-1.77c0.05-0.44,0.07-0.76,0.1-1.33c0.01-0.15,0.04-0.84,0.05-1.44
	c0.01-1.04-0.07-1.68-0.15-2.71c-0.06-0.77-0.09-1.47-0.15-2.88c-0.08-1.85-0.06-3.18-0.05-4.37c0.07-8.38-0.34-11.88-0.35-13.9
	c0-0.4,0.01-0.74-0.1-1.22c-0.08-0.33-0.16-0.49-0.2-0.89c-0.02-0.26-0.05-0.53,0.05-0.83c0.1-0.3,0.21-0.32,0.35-0.61
	c0.05-0.12,0.12-0.31,0.15-1.05c0.02-0.66-0.02-0.72,0-1.27c0.02-0.48,0.05-0.52,0.1-1.16c0.04-0.62,0.02-0.75,0.05-1.38
	c0.04-0.99,0.11-0.95,0.15-1.83c0.03-0.66-0.01-0.61,0-1.88c0.01-1.04,0.04-1.11,0-1.55c-0.06-0.71-0.11-1.23-0.45-1.66
	c-0.27-0.35-0.43-0.27-0.69-0.61c-0.29-0.38-0.37-0.86-0.4-1.5c-0.07-1.78,0.37-2.09,0.2-2.94c-0.19-0.93-0.9-1.45-1.93-2.22
	c-1.04-0.77-2.06-1.16-2.87-1.38c-1.74-0.48-3.07-0.39-4.35-0.33c-3.09,0.13-1.99-0.16-6.33-0.06c-2.39,0.06-7.61,0.18-12.07,0.78
	c-0.44,0.06-1.41,0.19-2.72,0.17c-1.92-0.04-2.6-0.56-4.15-0.61c-0.82-0.03-2.01,0.06-3.47,0.63"/>
<path class="st1" d="M23.08,14.92c-0.63,0.63-1.18,0.92-1.57,1.06c-0.2,0.07-0.55,0.18-0.76,0.53c-0.12,0.2-0.07,0.27-0.19,0.69
	c-0.13,0.45-0.23,0.48-0.52,1.22c-0.15,0.36-0.22,0.55-0.24,0.74c-0.02,0.19-0.05,0.61,0.11,0.87c0.02,0.02,0.03,0.05,0.03,0.08
	c-0.01,0.18-0.49,0.15-0.62,0.42c-0.07,0.15,0.03,0.24,0.1,0.64c0.02,0.14,0.08,0.5,0,0.85c-0.08,0.34-0.22,0.4-0.48,0.85
	c-0.14,0.24-0.22,0.46-0.38,0.9c-0.28,0.75-0.42,1.13-0.48,1.59c-0.09,0.71,0.11,0.68,0.05,1.7c-0.03,0.56-0.1,0.71-0.1,1.27
	c0,0.14,0.01,0.36,0.1,1.06c0.1,0.82,0.15,0.99,0.24,1.65c0.15,1.1,0.07,1.1,0.19,1.7c0.16,0.79,0.3,0.83,0.48,1.54
	c0.22,0.85,0.12,1.21,0.19,2.55c0.07,1.36,0.19,1.25,0.24,2.28c0.07,1.54-0.18,1.76-0.29,4.09c-0.06,1.25,0.01,1.23-0.05,2.55
	c-0.07,1.4-0.19,2.27-0.29,3.19c-0.34,3.1-0.07,3.17-0.38,6.48c-0.17,1.76-0.28,2.15-0.43,4.14c0,0-0.27,3.61,0.67,4.78
	c0.27,0.34,0.62,0.64,0.62,0.64c0.15,0.13,0.26,0.22,0.43,0.32c0.2,0.12,0.49,0.29,0.86,0.27c0.25-0.01,0.27-0.1,0.57-0.11
	c0.19,0,0.24,0.03,0.48,0.05c0.18,0.02,0.36,0.01,0.71,0c0.25-0.01,0.51-0.02,0.86-0.05c0.49-0.05,0.51-0.08,1.1-0.16
	c0.92-0.12,0.91-0.05,1.24-0.16c0.47-0.16,0.54-0.34,0.91-0.37c0.41-0.04,0.72,0.14,0.86,0.21c1.36,0.68,3.09-0.71,4.81-0.37
	c0.25,0.05,0.83,0.2,1.43-0.05c0.14-0.06,0.21-0.11,0.38-0.16c0.52-0.15,0.96,0,1.14,0.05c0.45,0.13,0.33-0.03,2.05,0
	c0.41,0.01,0.25,0.01,2.29,0.11c0.73,0.03,0.8,0.03,1.14,0.05c1.14,0.06,1.2,0.09,1.71,0.11c1.1,0.03,1.05-0.1,1.91-0.05
	c0.78,0.04,0.78,0.15,1.86,0.27c0.38,0.04,0.9,0.06,1.95,0.11c1.07,0.04,1.6,0.07,1.95,0.05c0.61-0.02,0.86-0.07,1.48-0.05
	c0.5,0.02,0.69,0.06,1.14,0.11c1.68,0.17,1.94-0.16,2.95,0.11c0.79,0.21,0.6,0.4,1.38,0.58c0.43,0.1,1.59,0.36,2.67-0.32
	c0.23-0.15,0.62-0.4,0.9-0.9c0.23-0.41,0.28-0.84,0.38-1.7c0.05-0.42,0.07-0.73,0.1-1.27c0.01-0.15,0.04-0.8,0.05-1.38
	c0.01-1-0.07-1.61-0.14-2.6c-0.06-0.74-0.09-1.41-0.14-2.76c-0.08-1.78-0.06-3.05-0.05-4.2c0.06-8.03-0.32-11.4-0.33-13.33
	c0-0.38,0.01-0.71-0.1-1.17c-0.07-0.32-0.15-0.47-0.19-0.85c-0.02-0.25-0.05-0.51,0.05-0.8c0.09-0.29,0.2-0.3,0.33-0.58
	c0.05-0.12,0.12-0.29,0.14-1.01c0.02-0.63-0.02-0.69,0-1.22c0.02-0.46,0.05-0.5,0.1-1.12c0.04-0.6,0.02-0.72,0.05-1.33
	c0.04-0.95,0.1-0.91,0.14-1.75c0.03-0.64-0.01-0.59,0-1.81c0.01-1,0.04-1.07,0-1.49c-0.06-0.68-0.11-1.18-0.43-1.59
	c-0.26-0.33-0.42-0.26-0.67-0.58c-0.28-0.37-0.36-0.82-0.38-1.43c-0.07-1.71,0.36-2,0.19-2.82c-0.18-0.89-0.86-1.39-1.86-2.12
	c-1.01-0.74-1.98-1.11-2.76-1.33c-1.67-0.46-2.96-0.37-4.19-0.32c-2.98,0.13-1.92-0.15-6.1-0.05c-2.3,0.05-7.33,0.17-11.62,0.74
	c-0.42,0.06-1.36,0.19-2.62,0.16c-1.85-0.04-2.51-0.54-4-0.58c-0.79-0.02-1.94,0.06-3.34,0.6"/>
</svg>
