<?xml version="1.0" encoding="utf-8"?>
<!-- Generator: Adobe Illustrator 23.0.6, SVG Export Plug-In . SVG Version: 6.00 Build 0)  -->
<svg version="1.1" id="Layer_1" xmlns="http://www.w3.org/2000/svg" xmlns:xlink="http://www.w3.org/1999/xlink" x="0px" y="0px"
	 viewBox="0 0 80 80" style="enable-background:new 0 0 80 80;" xml:space="preserve">
<style type="text/css">
	.st0{fill:#D1D1D1;stroke:#000000;stroke-width:0.5;stroke-miterlimit:10;}
	.st1{fill:#DDCFC9;stroke:#000000;stroke-width:0.5;stroke-miterlimit:10;}
	.st2{fill:#FFFFFF;stroke:#000000;stroke-width:0.5;stroke-miterlimit:10;}
	.st3{fill:#D1D1D1;}
	.st4{font-family:'ArialMT';}
	.st5{font-size:12px;}
	.st6{fill:none;}
</style>
<line class="st0" x1="56.1" y1="5.7" x2="57.5" y2="6.5"/>
<ellipse class="st0" cx="39" cy="38" rx="21.5" ry="14.5"/>
<ellipse class="st0" cx="40" cy="63" rx="13.5" ry="9.5"/>
<line class="st0" x1="60.5" y1="39.5" x2="53.5" y2="64.5"/>
<ellipse class="st1" cx="39" cy="38" rx="19" ry="11.5"/>
<line class="st0" x1="26.5" y1="62.5" x2="17.5" y2="40.5"/>
<polyline class="st2" points="45.5,35.5 57.3,6 56,5 42.5,34.5 "/>
<g>
	<g>
		<path class="st3" d="M27.8,62.5c1.9,0,1.9-3,0-3S25.8,62.5,27.8,62.5L27.8,62.5z"/>
	</g>
</g>
<g>
	<g>
		<path class="st3" d="M27.7,62.4c1.9,0,1.9-3,0-3S25.8,62.4,27.7,62.4L27.7,62.4z"/>
	</g>
</g>
<g>
	<g>
		<path class="st3" d="M27.5,62.2c1.9,0,1.9-3,0-3S25.6,62.2,27.5,62.2L27.5,62.2z"/>
	</g>
</g>
<g>
	<g>
		<path class="st3" d="M27.5,62.1c1.9,0,1.9-3,0-3S25.6,62.1,27.5,62.1L27.5,62.1z"/>
	</g>
</g>
<g>
	<g>
		<path class="st3" d="M27.8,62.8c1.9,0,1.9-3,0-3S25.9,62.8,27.8,62.8L27.8,62.8z"/>
	</g>
</g>
<g>
	<g>
		<path class="st3" d="M28,63.3c1.9,0,1.9-3,0-3S26.1,63.3,28,63.3L28,63.3z"/>
	</g>
</g>
<line class="st0" x1="45.5" y1="35.5" x2="42.5" y2="34.5"/>
<line class="st0" x1="43.5" y1="34.5" x2="49.5" y2="21.5"/>
<path id="SVGID_x5F_1_x5F_" class="st3" d="M8,61h44"/>
<text class="st3 st4 st5"> </text>
<rect x="26.5" y="53" class="st3" width="26.7" height="8.3"/>
<rect x="54.1" y="46.7" transform="matrix(0.9579 0.287 -0.287 0.9579 18.3349 -13.3899)" class="st3" width="1.6" height="18.3"/>
<rect x="52.5" y="47.8" transform="matrix(0.9579 0.287 -0.287 0.9579 18.5863 -12.8999)" class="st3" width="1.6" height="18.3"/>
<rect x="45.8" y="48.4" transform="matrix(0.7071 0.7071 -0.7071 0.7071 54.6668 -16.9141)" class="st3" width="3.9" height="18.3"/>
<rect x="45.7" y="44.1" transform="matrix(0.3789 0.9255 -0.9255 0.3789 78.3264 -10.2125)" class="st3" width="2.1" height="18.3"/>
<rect x="43" y="44.4" transform="matrix(0.2168 0.9762 -0.9762 0.2168 86.7409 -1.1127)" class="st3" width="2.1" height="18.3"/>
<rect x="39.1" y="44.8" transform="matrix(0.1252 0.9921 -0.9921 0.1252 88.6879 7.3601)" class="st3" width="2.1" height="18.3"/>
<rect x="28.6" y="45.2" transform="matrix(-0.5849 0.8111 -0.8111 -0.5849 91.3116 61.9606)" class="st3" width="2.5" height="18.3"/>
<rect x="30.5" y="44.8" transform="matrix(-0.457 0.8894 -0.8894 -0.457 93.9679 50.5844)" class="st3" width="2.1" height="18.3"/>
<rect x="34.3" y="45.2" transform="matrix(-0.3179 0.9481 -0.9481 -0.3179 98.1306 38.0913)" class="st3" width="2.1" height="18.3"/>
<rect x="35.6" y="44.8" transform="matrix(-0.1827 0.9832 -0.9832 -0.1827 96.4717 27.7543)" class="st3" width="2.1" height="18.3"/>
<rect x="39.9" y="44.7" transform="matrix(-1.836970e-16 1 -1 -1.836970e-16 94.8515 12.8908)" class="st3" width="2.1" height="18.3"/>
<rect x="37.6" y="41.1" transform="matrix(-1.836970e-16 1 -1 -1.836970e-16 88.0615 12.5336)" class="st3" width="0.4" height="18.3"/>
<rect x="52.8" y="46.3" transform="matrix(0.5 0.866 -0.866 0.5 70.2876 -21.7033)" class="st3" width="2.2" height="7.5"/>
<rect x="47.1" y="48.7" transform="matrix(0.3127 0.9499 -0.9499 0.3127 83.0276 -9.7411)" class="st3" width="2.2" height="7.5"/>
<rect x="49.9" y="47.8" transform="matrix(0.4198 0.9076 -0.9076 0.4198 76.3417 -16.385)" class="st3" width="2.2" height="7.5"/>
<rect x="55.8" y="45.9" transform="matrix(0.7071 0.7071 -0.7071 0.7071 50.2821 -25.8431)" class="st3" width="1.1" height="3.8"/>
<rect x="54.7" y="46.5" transform="matrix(0.6079 0.794 -0.794 0.6079 60.2717 -24.9604)" class="st3" width="1.3" height="4.1"/>
<rect x="57.3" y="45.8" transform="matrix(0.7708 0.6371 -0.6371 0.7708 42.7113 -26.1713)" class="st3" width="0.9" height="0.9"/>
<rect x="57.7" y="44.6" transform="matrix(0.7708 0.6371 -0.6371 0.7708 42.3474 -26.4057)" class="st3" width="0.4" height="2.1"/>
<rect x="57.6" y="45.4" transform="matrix(0.9579 0.287 -0.287 0.9579 15.7572 -14.6816)" class="st3" width="0.8" height="2.1"/>
<rect x="58.2" y="44.3" transform="matrix(0.9579 0.287 -0.287 0.9579 15.6313 -14.7954)" class="st3" width="0.2" height="3.2"/>
<rect x="58.5" y="44.2" transform="matrix(0.7708 0.6371 -0.6371 0.7708 41.8313 -27.0911)" class="st3" width="0.2" height="0.7"/>
<rect x="58.8" y="43.9" transform="matrix(0.7917 0.6109 -0.6109 0.7917 39.2045 -26.7481)" class="st3" width="0" height="0.5"/>
<rect x="23.7" y="48.3" transform="matrix(0.9255 -0.3789 0.3789 0.9255 -18.9617 13.5108)" class="st3" width="2.3" height="13.2"/>
<rect x="26.6" y="50.9" transform="matrix(0.9255 -0.3789 0.3789 0.9255 -19.7318 14.7835)" class="st3" width="2.3" height="13.2"/>
<rect x="23.2" y="47.7" transform="matrix(0.9255 -0.3789 0.3789 0.9255 -18.534 13.1133)" class="st3" width="1.8" height="11.8"/>
<rect x="20.4" y="44.2" transform="matrix(0.9255 -0.3789 0.3789 0.9255 -16.165 11.2292)" class="st3" width="0.2" height="4.9"/>
<rect x="21.6" y="47" transform="matrix(0.9255 -0.3789 0.3789 0.9255 -17.0783 12.0659)" class="st3" width="1.1" height="4.9"/>
<rect x="21.3" y="46.4" transform="matrix(0.9255 -0.3789 0.3789 0.9255 -16.9025 11.8727)" class="st3" width="0.7" height="4.9"/>
<rect x="21.4" y="44.7" transform="matrix(0.7684 -0.6399 0.6399 0.7684 -25.2027 24.7022)" class="st3" width="0.2" height="4.9"/>
<rect x="22" y="45.1" transform="matrix(0.5849 -0.8111 0.8111 0.5849 -29.384 37.7443)" class="st3" width="0.3" height="4.9"/>
<rect x="20.2" y="45.6" transform="matrix(0.9255 -0.3789 0.3789 0.9255 -16.0788 11.1925)" class="st3" width="0.3" height="1.8"/>
<path id="SVGID_x5F_1_x5F__1_" class="st6" d="M11.8,54c2.5,2.4,5.9,3.9,9.2,5c9.1,2.9,18.9,3,28.5,2.7c3.4-0.1,7.3-0.4,9.3-3.1"/>
<text><textPath  xlink:href="#SVGID_x5F_1_x5F__1_" startOffset="41.1946%">
<tspan  style="font-family:'MyriadPro-Regular'; font-size:8.1933px;">Yogurt</tspan></textPath>
</text>
</svg>
